<svg width="1920" height="714" fill="none" xmlns="http://www.w3.org/2000/svg"><g opacity=".4" stroke="#936037" stroke-width=".665" stroke-miterlimit="10"><path d="M1920 713.611c-28.23 0-28.23-31.104-56.47-31.104-28.23 0-28.23 31.104-56.46 31.104s-28.23-31.104-56.47-31.104c-28.23 0-28.23 31.104-56.46 31.104s-28.25-31.104-56.48-31.104c-28.23 0-28.23 31.104-56.47 31.104-28.23 0-28.23-31.104-56.48-31.104-28.24 0-28.23 31.104-56.46 31.104s-28.23-31.104-56.47-31.104c-28.23 0-28.23 31.104-56.46 31.104s-28.25-31.104-56.48-31.104c-28.23 0-28.23 31.104-56.46 31.104-28.24 0-28.24-31.104-56.47-31.104s-28.23 31.104-56.47 31.104c-28.23 0-28.23-31.104-56.46-31.104s-28.23 31.104-56.47 31.104c-28.228 0-28.228-31.104-56.46-31.104-28.233 0-28.233 31.104-56.465 31.104-28.233 0-28.247-31.104-56.48-31.104-28.232 0-28.232 31.104-56.465 31.104-28.232 0-28.232-31.104-56.479-31.104s-28.233 31.104-56.465 31.104c-28.233 0-28.233-31.104-56.465-31.104-28.233 0-28.247 31.104-56.48 31.104-28.232 0-28.232-31.104-56.465-31.104-28.232 0-28.247 31.104-56.479 31.104-28.233 0-28.233-31.104-56.48-31.104-28.247 0-28.232 31.104-56.465 31.104-28.232 0-28.232-31.104-56.465-31.104-28.233 0-28.247 31.104-56.479 31.104-28.233 0-28.247-31.104-56.48-31.104-28.232 0-28.232 31.104-56.479 31.104s-28.233-31.104-56.48-31.104c-28.247 0-28.247 31.104-56.48 31.104M1920 471.298c-28.23 0-28.23-31.104-56.47-31.104-28.23 0-28.23 31.104-56.46 31.104s-28.23-31.104-56.47-31.104c-28.23 0-28.23 31.104-56.46 31.104s-28.25-31.104-56.48-31.104c-28.23 0-28.23 31.104-56.47 31.104-28.23 0-28.23-31.104-56.48-31.104-28.24 0-28.23 31.104-56.46 31.104s-28.23-31.104-56.47-31.104c-28.23 0-28.23 31.104-56.46 31.104s-28.25-31.104-56.48-31.104c-28.23 0-28.23 31.104-56.46 31.104-28.24 0-28.24-31.104-56.47-31.104s-28.23 31.104-56.47 31.104c-28.23 0-28.23-31.104-56.46-31.104s-28.23 31.104-56.47 31.104c-28.228 0-28.228-31.104-56.46-31.104-28.233 0-28.233 31.104-56.465 31.104-28.233 0-28.247-31.104-56.48-31.104-28.232 0-28.232 31.104-56.465 31.104-28.232 0-28.232-31.104-56.479-31.104s-28.233 31.104-56.465 31.104c-28.233 0-28.233-31.104-56.465-31.104-28.233 0-28.247 31.104-56.48 31.104-28.232 0-28.232-31.104-56.465-31.104-28.232 0-28.247 31.104-56.479 31.104-28.233 0-28.233-31.104-56.48-31.104-28.247 0-28.232 31.104-56.465 31.104-28.232 0-28.232-31.104-56.465-31.104-28.233 0-28.247 31.104-56.479 31.104-28.233 0-28.247-31.104-56.48-31.104-28.232 0-28.232 31.104-56.479 31.104s-28.233-31.104-56.48-31.104c-28.247 0-28.247 31.104-56.48 31.104M1920 592.454c-28.23 0-28.23-31.104-56.47-31.104-28.23 0-28.23 31.104-56.46 31.104s-28.23-31.104-56.47-31.104c-28.23 0-28.23 31.104-56.46 31.104s-28.25-31.104-56.48-31.104c-28.23 0-28.23 31.104-56.47 31.104-28.23 0-28.23-31.104-56.48-31.104-28.24 0-28.23 31.104-56.46 31.104s-28.23-31.104-56.47-31.104c-28.23 0-28.23 31.104-56.46 31.104s-28.25-31.104-56.48-31.104c-28.23 0-28.23 31.104-56.46 31.104-28.24 0-28.24-31.104-56.47-31.104s-28.23 31.104-56.47 31.104c-28.23 0-28.23-31.104-56.46-31.104s-28.23 31.104-56.47 31.104c-28.228 0-28.228-31.104-56.46-31.104-28.233 0-28.233 31.104-56.465 31.104-28.233 0-28.247-31.104-56.48-31.104-28.232 0-28.232 31.104-56.465 31.104-28.232 0-28.232-31.104-56.479-31.104s-28.233 31.104-56.465 31.104c-28.233 0-28.233-31.104-56.465-31.104-28.233 0-28.247 31.104-56.48 31.104-28.232 0-28.232-31.104-56.465-31.104-28.232 0-28.247 31.104-56.479 31.104-28.233 0-28.233-31.104-56.48-31.104-28.247 0-28.232 31.104-56.465 31.104-28.232 0-28.232-31.104-56.465-31.104-28.233 0-28.247 31.104-56.479 31.104-28.233 0-28.247-31.104-56.48-31.104-28.232 0-28.232 31.104-56.479 31.104s-28.233-31.104-56.48-31.104c-28.247 0-28.247 31.104-56.48 31.104M1920 350.141c-28.23 0-28.23-31.104-56.47-31.104-28.23 0-28.23 31.104-56.46 31.104s-28.23-31.104-56.47-31.104c-28.23 0-28.23 31.104-56.46 31.104s-28.25-31.104-56.48-31.104c-28.23 0-28.23 31.104-56.47 31.104-28.23 0-28.23-31.104-56.48-31.104-28.24 0-28.23 31.104-56.46 31.104s-28.23-31.104-56.47-31.104c-28.23 0-28.23 31.104-56.46 31.104s-28.25-31.104-56.48-31.104c-28.23 0-28.23 31.104-56.46 31.104-28.24 0-28.24-31.104-56.47-31.104s-28.23 31.104-56.47 31.104c-28.23 0-28.23-31.104-56.46-31.104s-28.23 31.104-56.47 31.104c-28.228 0-28.228-31.104-56.46-31.104-28.233 0-28.233 31.104-56.465 31.104-28.233 0-28.247-31.104-56.48-31.104-28.232 0-28.232 31.104-56.465 31.104-28.232 0-28.232-31.104-56.479-31.104s-28.233 31.104-56.465 31.104c-28.233 0-28.233-31.104-56.465-31.104-28.233 0-28.247 31.104-56.48 31.104-28.232 0-28.232-31.104-56.465-31.104-28.232 0-28.247 31.103-56.479 31.103-28.233 0-28.233-31.103-56.48-31.103-28.247 0-28.232 31.103-56.465 31.103-28.232 0-28.232-31.104-56.465-31.104-28.233 0-28.247 31.104-56.479 31.104-28.233 0-28.247-31.104-56.48-31.104-28.232 0-28.232 31.104-56.479 31.104s-28.233-31.104-56.48-31.104c-28.247 0-28.247 31.104-56.48 31.104M1920 122.972c-28.23 0-28.23-31.104-56.47-31.104-28.23 0-28.23 31.104-56.46 31.104s-28.23-31.104-56.47-31.104c-28.23 0-28.23 31.104-56.46 31.104s-28.25-31.104-56.48-31.104c-28.23 0-28.23 31.104-56.47 31.104-28.23 0-28.23-31.104-56.48-31.104-28.24 0-28.23 31.104-56.46 31.104s-28.23-31.104-56.47-31.104c-28.23 0-28.23 31.104-56.46 31.104s-28.25-31.104-56.48-31.104c-28.23 0-28.23 31.104-56.46 31.104-28.24 0-28.24-31.104-56.47-31.104s-28.23 31.104-56.47 31.104c-28.23 0-28.23-31.104-56.46-31.104s-28.23 31.104-56.47 31.104c-28.228 0-28.228-31.104-56.46-31.104-28.233 0-28.233 31.104-56.465 31.104-28.233 0-28.247-31.104-56.48-31.104-28.232 0-28.232 31.104-56.465 31.104-28.232 0-28.232-31.104-56.479-31.104s-28.233 31.104-56.465 31.104c-28.233 0-28.233-31.104-56.465-31.104-28.233 0-28.247 31.104-56.48 31.104-28.232 0-28.232-31.104-56.465-31.104-28.232 0-28.247 31.104-56.479 31.104-28.233 0-28.233-31.104-56.48-31.104-28.247 0-28.232 31.104-56.465 31.104-28.232 0-28.232-31.104-56.465-31.104-28.233 0-28.247 31.104-56.479 31.104-28.233 0-28.247-31.104-56.48-31.104-28.232 0-28.232 31.104-56.479 31.104s-28.233-31.104-56.48-31.104c-28.247 0-28.247 31.104-56.48 31.104M1920 653.033c-28.23 0-28.23-31.104-56.47-31.104-28.23 0-28.23 31.104-56.46 31.104s-28.23-31.104-56.47-31.104c-28.23 0-28.23 31.104-56.46 31.104s-28.25-31.104-56.48-31.104c-28.23 0-28.23 31.104-56.47 31.104-28.23 0-28.23-31.104-56.48-31.104-28.24 0-28.23 31.104-56.46 31.104s-28.23-31.104-56.47-31.104c-28.23 0-28.23 31.104-56.46 31.104s-28.25-31.104-56.48-31.104c-28.23 0-28.23 31.104-56.46 31.104-28.24 0-28.24-31.104-56.47-31.104s-28.23 31.104-56.47 31.104c-28.23 0-28.23-31.104-56.46-31.104s-28.23 31.104-56.47 31.104c-28.228 0-28.228-31.104-56.46-31.104-28.233 0-28.233 31.104-56.465 31.104-28.233 0-28.247-31.104-56.48-31.104-28.232 0-28.232 31.104-56.465 31.104-28.232 0-28.232-31.104-56.479-31.104s-28.233 31.104-56.465 31.104c-28.233 0-28.233-31.104-56.465-31.104-28.233 0-28.247 31.104-56.48 31.104-28.232 0-28.232-31.104-56.465-31.104-28.232 0-28.247 31.104-56.479 31.104-28.233 0-28.233-31.104-56.48-31.104-28.247 0-28.232 31.104-56.465 31.104-28.232 0-28.232-31.104-56.465-31.104-28.233 0-28.247 31.104-56.479 31.104-28.233 0-28.247-31.104-56.48-31.104-28.232 0-28.232 31.104-56.479 31.104s-28.233-31.104-56.48-31.104c-28.247 0-28.247 31.104-56.48 31.104M1920 410.719c-28.23 0-28.23-31.104-56.47-31.104-28.23 0-28.23 31.104-56.46 31.104s-28.23-31.104-56.47-31.104c-28.23 0-28.23 31.104-56.46 31.104s-28.25-31.104-56.48-31.104c-28.23 0-28.23 31.104-56.47 31.104-28.23 0-28.23-31.104-56.48-31.104-28.24 0-28.23 31.104-56.46 31.104s-28.23-31.104-56.47-31.104c-28.23 0-28.23 31.104-56.46 31.104s-28.25-31.104-56.48-31.104c-28.23 0-28.23 31.104-56.46 31.104-28.24 0-28.24-31.104-56.47-31.104s-28.23 31.104-56.47 31.104c-28.23 0-28.23-31.104-56.46-31.104s-28.23 31.104-56.47 31.104c-28.228 0-28.228-31.104-56.46-31.104-28.233 0-28.233 31.104-56.465 31.104-28.233 0-28.247-31.104-56.48-31.104-28.232 0-28.232 31.104-56.465 31.104-28.232 0-28.232-31.104-56.479-31.104s-28.233 31.104-56.465 31.104c-28.233 0-28.233-31.104-56.465-31.104-28.233 0-28.247 31.104-56.48 31.104-28.232 0-28.232-31.104-56.465-31.104-28.232 0-28.247 31.104-56.479 31.104-28.233 0-28.233-31.104-56.48-31.104-28.247 0-28.232 31.104-56.465 31.104-28.232 0-28.232-31.104-56.465-31.104-28.233 0-28.247 31.104-56.479 31.104-28.233 0-28.247-31.104-56.48-31.104-28.232 0-28.232 31.104-56.479 31.104s-28.233-31.104-56.48-31.104c-28.247 0-28.247 31.104-56.48 31.104M1920 183.55c-28.23 0-28.23-31.104-56.47-31.104-28.23 0-28.23 31.104-56.46 31.104s-28.23-31.104-56.47-31.104c-28.23 0-28.23 31.104-56.46 31.104s-28.25-31.104-56.48-31.104c-28.23 0-28.23 31.104-56.47 31.104-28.23 0-28.23-31.104-56.48-31.104-28.24 0-28.23 31.104-56.46 31.104s-28.23-31.104-56.47-31.104c-28.23 0-28.23 31.104-56.46 31.104s-28.25-31.104-56.48-31.104c-28.23 0-28.23 31.104-56.46 31.104-28.24 0-28.24-31.104-56.47-31.104s-28.23 31.104-56.47 31.104c-28.23 0-28.23-31.104-56.46-31.104s-28.23 31.104-56.47 31.104c-28.228 0-28.228-31.104-56.46-31.104-28.233 0-28.233 31.104-56.465 31.104-28.233 0-28.247-31.104-56.48-31.104-28.232 0-28.232 31.104-56.465 31.104-28.232 0-28.232-31.104-56.479-31.104s-28.233 31.104-56.465 31.104c-28.233 0-28.233-31.104-56.465-31.104-28.233 0-28.247 31.104-56.48 31.104-28.232 0-28.232-31.104-56.465-31.104-28.232 0-28.247 31.104-56.479 31.104-28.233 0-28.233-31.104-56.48-31.104-28.247 0-28.232 31.104-56.465 31.104-28.232 0-28.232-31.104-56.465-31.104-28.233 0-28.247 31.104-56.479 31.104-28.233 0-28.247-31.104-56.48-31.104-28.232 0-28.232 31.104-56.479 31.104s-28.233-31.104-56.48-31.104c-28.247 0-28.247 31.104-56.48 31.104M1920 531.876c-28.23 0-28.23-31.104-56.47-31.104-28.23 0-28.23 31.104-56.46 31.104s-28.23-31.104-56.47-31.104c-28.23 0-28.23 31.104-56.46 31.104s-28.25-31.104-56.48-31.104c-28.23 0-28.23 31.104-56.47 31.104-28.23 0-28.23-31.104-56.48-31.104-28.24 0-28.23 31.104-56.46 31.104s-28.23-31.104-56.47-31.104c-28.23 0-28.23 31.104-56.46 31.104s-28.25-31.104-56.48-31.104c-28.23 0-28.23 31.104-56.46 31.104-28.24 0-28.24-31.104-56.47-31.104s-28.23 31.104-56.47 31.104c-28.23 0-28.23-31.104-56.46-31.104s-28.23 31.104-56.47 31.104c-28.228 0-28.228-31.104-56.46-31.104-28.233 0-28.233 31.104-56.465 31.104-28.233 0-28.247-31.104-56.48-31.104-28.232 0-28.232 31.104-56.465 31.104-28.232 0-28.232-31.104-56.479-31.104s-28.233 31.104-56.465 31.104c-28.233 0-28.233-31.104-56.465-31.104-28.233 0-28.247 31.104-56.48 31.104-28.232 0-28.232-31.104-56.465-31.104-28.232 0-28.247 31.104-56.479 31.104-28.233 0-28.233-31.104-56.48-31.104-28.247 0-28.232 31.104-56.465 31.104-28.232 0-28.232-31.104-56.465-31.104-28.233 0-28.247 31.104-56.479 31.104-28.233 0-28.247-31.104-56.48-31.104-28.232 0-28.232 31.104-56.479 31.104s-28.233-31.104-56.48-31.104c-28.247 0-28.247 31.104-56.48 31.104M1920 289.562c-28.23 0-28.23-31.103-56.47-31.103-28.23 0-28.23 31.103-56.46 31.103s-28.23-31.104-56.47-31.104c-28.23 0-28.23 31.104-56.46 31.104s-28.25-31.104-56.48-31.104c-28.23 0-28.23 31.104-56.47 31.104-28.23 0-28.23-31.104-56.48-31.104-28.24 0-28.23 31.104-56.46 31.104s-28.23-31.104-56.47-31.104c-28.23 0-28.23 31.104-56.46 31.104s-28.25-31.104-56.48-31.104c-28.23 0-28.23 31.104-56.46 31.104-28.24 0-28.24-31.104-56.47-31.104s-28.23 31.104-56.47 31.104c-28.23 0-28.23-31.104-56.46-31.104s-28.23 31.104-56.47 31.104c-28.228 0-28.228-31.104-56.46-31.104-28.233 0-28.233 31.104-56.465 31.104-28.233 0-28.247-31.104-56.48-31.104-28.232 0-28.232 31.104-56.465 31.104-28.232 0-28.232-31.104-56.479-31.104s-28.233 31.104-56.465 31.104c-28.233 0-28.233-31.104-56.465-31.104-28.233 0-28.247 31.104-56.48 31.104-28.232 0-28.232-31.104-56.465-31.104-28.232 0-28.247 31.104-56.479 31.104-28.233 0-28.233-31.104-56.48-31.104-28.247 0-28.232 31.104-56.465 31.104-28.232 0-28.232-31.104-56.465-31.104-28.233 0-28.247 31.104-56.479 31.104-28.233 0-28.247-31.104-56.48-31.104-28.232 0-28.232 31.104-56.479 31.104s-28.233-31.104-56.48-31.104c-28.247 0-28.247 31.104-56.48 31.104M1920 62.393c-28.23 0-28.23-31.104-56.47-31.104-28.23 0-28.23 31.104-56.46 31.104s-28.23-31.104-56.47-31.104c-28.23 0-28.23 31.104-56.46 31.104s-28.25-31.104-56.48-31.104c-28.23 0-28.23 31.104-56.47 31.103-28.23 0-28.23-31.103-56.48-31.103-28.24 0-28.23 31.103-56.46 31.103s-28.23-31.104-56.47-31.104c-28.23 0-28.23 31.104-56.46 31.104s-28.25-31.104-56.48-31.104c-28.23 0-28.23 31.104-56.46 31.104-28.24 0-28.24-31.104-56.47-31.104s-28.23 31.104-56.47 31.104c-28.23 0-28.23-31.104-56.46-31.104s-28.23 31.104-56.47 31.104c-28.228 0-28.228-31.104-56.46-31.104-28.233 0-28.233 31.104-56.465 31.104-28.233 0-28.247-31.104-56.48-31.104-28.232 0-28.232 31.104-56.465 31.104-28.232 0-28.232-31.104-56.479-31.104s-28.233 31.104-56.465 31.104c-28.233 0-28.233-31.104-56.465-31.104-28.233 0-28.247 31.104-56.48 31.104-28.232 0-28.232-31.104-56.465-31.104-28.232 0-28.247 31.104-56.479 31.104-28.233 0-28.233-31.104-56.48-31.104-28.247 0-28.232 31.104-56.465 31.104-28.232 0-28.232-31.104-56.465-31.104-28.233 0-28.247 31.104-56.479 31.104-28.233 0-28.247-31.104-56.48-31.104-28.232 0-28.232 31.104-56.479 31.104s-28.233-31.104-56.48-31.104c-28.247 0-28.247 31.104-56.48 31.104"/><path d="M1920 683.322c-28.23 0-28.23-31.104-56.47-31.104-28.23 0-28.23 31.104-56.46 31.104s-28.23-31.104-56.47-31.104c-28.23 0-28.23 31.104-56.46 31.104s-28.25-31.104-56.48-31.104c-28.23 0-28.23 31.104-56.47 31.104-28.23 0-28.23-31.104-56.48-31.104-28.24 0-28.23 31.104-56.46 31.104s-28.23-31.104-56.47-31.104c-28.23 0-28.23 31.104-56.46 31.104s-28.25-31.104-56.48-31.104c-28.23 0-28.23 31.104-56.46 31.104-28.24 0-28.24-31.104-56.47-31.104s-28.23 31.104-56.47 31.104c-28.23 0-28.23-31.104-56.46-31.104s-28.23 31.104-56.47 31.104c-28.228 0-28.228-31.104-56.46-31.104-28.233 0-28.233 31.104-56.465 31.104-28.233 0-28.247-31.104-56.48-31.104-28.232 0-28.232 31.104-56.465 31.104-28.232 0-28.232-31.104-56.479-31.104s-28.233 31.104-56.465 31.104c-28.233 0-28.233-31.104-56.465-31.104-28.233 0-28.247 31.104-56.48 31.104-28.232 0-28.232-31.104-56.465-31.104-28.232 0-28.247 31.104-56.479 31.104-28.233 0-28.233-31.104-56.48-31.104-28.247 0-28.232 31.104-56.465 31.104-28.232 0-28.232-31.104-56.465-31.104-28.233 0-28.247 31.104-56.479 31.104-28.233 0-28.247-31.104-56.48-31.104-28.232 0-28.232 31.104-56.479 31.104s-28.233-31.104-56.48-31.104c-28.247 0-28.247 31.104-56.48 31.104M1920 441.008c-28.23 0-28.23-31.104-56.47-31.104-28.23 0-28.23 31.104-56.46 31.104s-28.23-31.104-56.47-31.104c-28.23 0-28.23 31.104-56.46 31.104s-28.25-31.104-56.48-31.104c-28.23 0-28.23 31.104-56.47 31.104-28.23 0-28.23-31.104-56.48-31.104-28.24 0-28.23 31.104-56.46 31.104s-28.23-31.104-56.47-31.104c-28.23 0-28.23 31.104-56.46 31.104s-28.25-31.104-56.48-31.104c-28.23 0-28.23 31.104-56.46 31.104-28.24 0-28.24-31.104-56.47-31.104s-28.23 31.104-56.47 31.104c-28.23 0-28.23-31.104-56.46-31.104s-28.23 31.104-56.47 31.104c-28.228 0-28.228-31.104-56.46-31.104-28.233 0-28.233 31.104-56.465 31.104-28.233 0-28.247-31.104-56.48-31.104-28.232 0-28.232 31.104-56.465 31.104-28.232 0-28.232-31.104-56.479-31.104s-28.233 31.104-56.465 31.104c-28.233 0-28.233-31.104-56.465-31.104-28.233 0-28.247 31.104-56.48 31.104-28.232 0-28.232-31.104-56.465-31.104-28.232 0-28.247 31.104-56.479 31.104-28.233 0-28.233-31.104-56.48-31.104-28.247 0-28.232 31.104-56.465 31.104-28.232 0-28.232-31.104-56.465-31.104-28.233 0-28.247 31.104-56.479 31.104-28.233 0-28.247-31.104-56.48-31.104-28.232 0-28.232 31.104-56.479 31.104s-28.233-31.104-56.48-31.104c-28.247 0-28.247 31.104-56.48 31.104M1920 213.839c-28.23 0-28.23-31.104-56.47-31.104-28.23 0-28.23 31.104-56.46 31.104s-28.23-31.104-56.47-31.104c-28.23 0-28.23 31.104-56.46 31.104s-28.25-31.104-56.48-31.104c-28.23 0-28.23 31.104-56.47 31.104-28.23 0-28.23-31.104-56.48-31.104-28.24 0-28.23 31.104-56.46 31.104s-28.23-31.104-56.47-31.104c-28.23 0-28.23 31.104-56.46 31.104s-28.25-31.104-56.48-31.104c-28.23 0-28.23 31.104-56.46 31.104-28.24 0-28.24-31.104-56.47-31.104s-28.23 31.104-56.47 31.104c-28.23 0-28.23-31.104-56.46-31.104s-28.23 31.104-56.47 31.104c-28.228 0-28.228-31.104-56.46-31.104-28.233 0-28.233 31.104-56.465 31.104-28.233 0-28.247-31.104-56.48-31.104-28.232 0-28.232 31.104-56.465 31.104-28.232 0-28.232-31.104-56.479-31.104s-28.233 31.104-56.465 31.104c-28.233 0-28.233-31.104-56.465-31.104-28.233 0-28.247 31.104-56.48 31.104-28.232 0-28.232-31.104-56.465-31.104-28.232 0-28.247 31.104-56.479 31.104-28.233 0-28.233-31.104-56.48-31.104-28.247 0-28.232 31.104-56.465 31.104-28.232 0-28.232-31.104-56.465-31.104-28.233 0-28.247 31.104-56.479 31.104-28.233 0-28.247-31.104-56.48-31.104-28.232 0-28.232 31.104-56.479 31.104s-28.233-31.104-56.48-31.104c-28.247 0-28.247 31.104-56.48 31.104M1920 562.165c-28.23 0-28.23-31.104-56.47-31.104-28.23 0-28.23 31.104-56.46 31.104s-28.23-31.104-56.47-31.104c-28.23 0-28.23 31.104-56.46 31.104s-28.25-31.104-56.48-31.104c-28.23 0-28.23 31.104-56.47 31.104-28.23 0-28.23-31.104-56.48-31.104-28.24 0-28.23 31.104-56.46 31.104s-28.23-31.104-56.47-31.104c-28.23 0-28.23 31.104-56.46 31.104s-28.25-31.104-56.48-31.104c-28.23 0-28.23 31.104-56.46 31.104-28.24 0-28.24-31.104-56.47-31.104s-28.23 31.104-56.47 31.104c-28.23 0-28.23-31.104-56.46-31.104s-28.23 31.104-56.47 31.104c-28.228 0-28.228-31.104-56.46-31.104-28.233 0-28.233 31.104-56.465 31.104-28.233 0-28.247-31.104-56.48-31.104-28.232 0-28.232 31.104-56.465 31.104-28.232 0-28.232-31.104-56.479-31.104s-28.233 31.104-56.465 31.104c-28.233 0-28.233-31.104-56.465-31.104-28.233 0-28.247 31.104-56.48 31.104-28.232 0-28.232-31.104-56.465-31.104-28.232 0-28.247 31.104-56.479 31.104-28.233 0-28.233-31.104-56.48-31.104-28.247 0-28.232 31.104-56.465 31.104-28.232 0-28.232-31.104-56.465-31.104-28.233 0-28.247 31.104-56.479 31.104-28.233 0-28.247-31.104-56.48-31.104-28.232 0-28.232 31.104-56.479 31.104s-28.233-31.104-56.48-31.104c-28.247 0-28.247 31.104-56.48 31.104M1920 319.852c-28.23 0-28.23-31.104-56.47-31.104-28.23 0-28.23 31.104-56.46 31.104s-28.23-31.104-56.47-31.104c-28.23 0-28.23 31.104-56.46 31.104s-28.25-31.104-56.48-31.104c-28.23 0-28.23 31.104-56.47 31.104-28.23 0-28.23-31.104-56.48-31.104-28.24 0-28.23 31.104-56.46 31.104s-28.23-31.104-56.47-31.104c-28.23 0-28.23 31.104-56.46 31.104s-28.25-31.104-56.48-31.104c-28.23 0-28.23 31.104-56.46 31.104-28.24 0-28.24-31.104-56.47-31.104s-28.23 31.103-56.47 31.103c-28.23 0-28.23-31.103-56.46-31.103-28.23-.001-28.23 31.103-56.47 31.103-28.228 0-28.228-31.104-56.46-31.104-28.233 0-28.233 31.104-56.465 31.104-28.233 0-28.247-31.104-56.48-31.104-28.232 0-28.232 31.104-56.465 31.104-28.232 0-28.232-31.104-56.479-31.104s-28.233 31.104-56.465 31.104c-28.233 0-28.233-31.104-56.465-31.104-28.233 0-28.247 31.104-56.48 31.104-28.232 0-28.232-31.104-56.465-31.104-28.232 0-28.247 31.104-56.479 31.104-28.233 0-28.233-31.104-56.48-31.104-28.247 0-28.232 31.104-56.465 31.104-28.232 0-28.232-31.104-56.465-31.104-28.233 0-28.247 31.104-56.479 31.104-28.233 0-28.247-31.104-56.48-31.104-28.232 0-28.232 31.104-56.479 31.104s-28.233-31.104-56.48-31.104c-28.247 0-28.247 31.104-56.48 31.104M1920 92.683c-28.23 0-28.23-31.104-56.47-31.104-28.23 0-28.23 31.104-56.46 31.104s-28.23-31.104-56.47-31.104c-28.23 0-28.23 31.104-56.46 31.104s-28.25-31.104-56.48-31.104c-28.23 0-28.23 31.104-56.47 31.104-28.23 0-28.23-31.104-56.48-31.104-28.24 0-28.23 31.104-56.46 31.104s-28.23-31.104-56.47-31.104c-28.23 0-28.23 31.104-56.46 31.104s-28.25-31.104-56.48-31.104c-28.23 0-28.23 31.104-56.46 31.104-28.24 0-28.24-31.104-56.47-31.104s-28.23 31.104-56.47 31.104c-28.23 0-28.23-31.104-56.46-31.104s-28.23 31.104-56.47 31.104c-28.228 0-28.228-31.105-56.46-31.105-28.233 0-28.233 31.105-56.465 31.105-28.233 0-28.247-31.105-56.48-31.105-28.232 0-28.232 31.105-56.465 31.105-28.232 0-28.232-31.105-56.479-31.105s-28.233 31.105-56.465 31.105c-28.233 0-28.233-31.105-56.465-31.105-28.233 0-28.247 31.105-56.48 31.105-28.232 0-28.232-31.105-56.465-31.105-28.232 0-28.247 31.105-56.479 31.105-28.233 0-28.233-31.105-56.48-31.105-28.247 0-28.232 31.105-56.465 31.105-28.232 0-28.232-31.105-56.465-31.105-28.233 0-28.247 31.105-56.479 31.105-28.233 0-28.247-31.105-56.48-31.105-28.232 0-28.232 31.105-56.479 31.105s-28.233-31.105-56.48-31.105c-28.247 0-28.247 31.105-56.48 31.104M1920 622.743c-28.23 0-28.23-31.104-56.47-31.104-28.23 0-28.23 31.104-56.46 31.104s-28.23-31.104-56.47-31.104c-28.23 0-28.23 31.104-56.46 31.104s-28.25-31.104-56.48-31.104c-28.23 0-28.23 31.104-56.47 31.104-28.23 0-28.23-31.104-56.48-31.104-28.24 0-28.23 31.104-56.46 31.104s-28.23-31.104-56.47-31.104c-28.23 0-28.23 31.104-56.46 31.104s-28.25-31.104-56.48-31.104c-28.23 0-28.23 31.104-56.46 31.104-28.24 0-28.24-31.104-56.47-31.104s-28.23 31.104-56.47 31.104c-28.23 0-28.23-31.104-56.46-31.104s-28.23 31.104-56.47 31.104c-28.228 0-28.228-31.104-56.46-31.104-28.233 0-28.233 31.104-56.465 31.104-28.233 0-28.247-31.104-56.48-31.104-28.232 0-28.232 31.104-56.465 31.104-28.232 0-28.232-31.104-56.479-31.104s-28.233 31.104-56.465 31.104c-28.233 0-28.233-31.104-56.465-31.104-28.233 0-28.247 31.104-56.48 31.104-28.232 0-28.232-31.104-56.465-31.104-28.232 0-28.247 31.104-56.479 31.104-28.233 0-28.233-31.104-56.48-31.104-28.247 0-28.232 31.104-56.465 31.104-28.232 0-28.232-31.104-56.465-31.104-28.233 0-28.247 31.104-56.479 31.104-28.233 0-28.247-31.104-56.48-31.104-28.232 0-28.232 31.104-56.479 31.104s-28.233-31.104-56.48-31.104c-28.247 0-28.247 31.104-56.48 31.104M1920 380.43c-28.23 0-28.23-31.104-56.47-31.104-28.23 0-28.23 31.104-56.46 31.104s-28.23-31.104-56.47-31.104c-28.23 0-28.23 31.104-56.46 31.104s-28.25-31.104-56.48-31.104c-28.23 0-28.23 31.104-56.47 31.104-28.23 0-28.23-31.104-56.48-31.104-28.24 0-28.23 31.104-56.46 31.104s-28.23-31.104-56.47-31.104c-28.23 0-28.23 31.104-56.46 31.104s-28.25-31.104-56.48-31.104c-28.23 0-28.23 31.104-56.46 31.104-28.24 0-28.24-31.104-56.47-31.104s-28.23 31.104-56.47 31.104c-28.23 0-28.23-31.104-56.46-31.104s-28.23 31.104-56.47 31.104c-28.228 0-28.228-31.104-56.46-31.104-28.233 0-28.233 31.104-56.465 31.104-28.233 0-28.247-31.104-56.48-31.104-28.232 0-28.232 31.104-56.465 31.104-28.232 0-28.232-31.104-56.479-31.104s-28.233 31.104-56.465 31.104c-28.233 0-28.233-31.104-56.465-31.104-28.233 0-28.247 31.104-56.48 31.104-28.232 0-28.232-31.104-56.465-31.104-28.232 0-28.247 31.104-56.479 31.104-28.233 0-28.233-31.104-56.48-31.104-28.247 0-28.232 31.104-56.465 31.104-28.232 0-28.232-31.104-56.465-31.104-28.233 0-28.247 31.104-56.479 31.104-28.233 0-28.247-31.104-56.48-31.104-28.232 0-28.232 31.104-56.479 31.104s-28.233-31.104-56.48-31.104c-28.247 0-28.247 31.104-56.48 31.104M1920 153.261c-28.23 0-28.23-31.104-56.47-31.104-28.23 0-28.23 31.104-56.46 31.104s-28.23-31.104-56.47-31.104c-28.23 0-28.23 31.104-56.46 31.104s-28.25-31.104-56.48-31.104c-28.23 0-28.23 31.104-56.47 31.104-28.23 0-28.23-31.104-56.48-31.104-28.24 0-28.23 31.104-56.46 31.104s-28.23-31.104-56.47-31.104c-28.23 0-28.23 31.104-56.46 31.104s-28.25-31.104-56.48-31.104c-28.23 0-28.23 31.104-56.46 31.104-28.24 0-28.24-31.104-56.47-31.104s-28.23 31.104-56.47 31.104c-28.23 0-28.23-31.104-56.46-31.104s-28.23 31.104-56.47 31.104c-28.228 0-28.228-31.104-56.46-31.104-28.233 0-28.233 31.104-56.465 31.104-28.233 0-28.247-31.104-56.48-31.104-28.232 0-28.232 31.104-56.465 31.104-28.232 0-28.232-31.104-56.479-31.104s-28.233 31.104-56.465 31.104c-28.233 0-28.233-31.104-56.465-31.104-28.233 0-28.247 31.104-56.48 31.104-28.232 0-28.232-31.104-56.465-31.104-28.232 0-28.247 31.104-56.479 31.104-28.233 0-28.233-31.104-56.48-31.104-28.247 0-28.232 31.104-56.465 31.104-28.232 0-28.232-31.104-56.465-31.104-28.233 0-28.247 31.104-56.479 31.104-28.233 0-28.247-31.104-56.48-31.104-28.232 0-28.232 31.104-56.479 31.104s-28.233-31.104-56.48-31.104c-28.247 0-28.247 31.104-56.48 31.104M1920 501.587c-28.23 0-28.23-31.104-56.47-31.104-28.23 0-28.23 31.104-56.46 31.104s-28.23-31.104-56.47-31.104c-28.23 0-28.23 31.104-56.46 31.104s-28.25-31.104-56.48-31.104c-28.23 0-28.23 31.104-56.47 31.104-28.23 0-28.23-31.104-56.48-31.104-28.24 0-28.23 31.104-56.46 31.104s-28.23-31.104-56.47-31.104c-28.23 0-28.23 31.104-56.46 31.104s-28.25-31.104-56.48-31.104c-28.23 0-28.23 31.104-56.46 31.104-28.24 0-28.24-31.104-56.47-31.104s-28.23 31.104-56.47 31.104c-28.23 0-28.23-31.104-56.46-31.104s-28.23 31.104-56.47 31.104c-28.228 0-28.228-31.104-56.46-31.104-28.233 0-28.233 31.104-56.465 31.104-28.233 0-28.247-31.104-56.48-31.104-28.232 0-28.232 31.104-56.465 31.104-28.232 0-28.232-31.104-56.479-31.104s-28.233 31.104-56.465 31.104c-28.233 0-28.233-31.104-56.465-31.104-28.233 0-28.247 31.104-56.48 31.104-28.232 0-28.232-31.104-56.465-31.104-28.232 0-28.247 31.104-56.479 31.104-28.233 0-28.233-31.104-56.48-31.104-28.247 0-28.232 31.104-56.465 31.104-28.232 0-28.232-31.104-56.465-31.104-28.233 0-28.247 31.104-56.479 31.104-28.233 0-28.247-31.104-56.48-31.104-28.232 0-28.232 31.104-56.479 31.104s-28.233-31.104-56.48-31.104c-28.247 0-28.247 31.104-56.48 31.104M1920 259.272c-28.23 0-28.23-31.104-56.47-31.104-28.23 0-28.23 31.104-56.46 31.104s-28.23-31.104-56.47-31.104c-28.23 0-28.23 31.104-56.46 31.104s-28.25-31.104-56.48-31.104c-28.23 0-28.23 31.104-56.47 31.104-28.23 0-28.23-31.104-56.48-31.104-28.24 0-28.23 31.104-56.46 31.104s-28.23-31.104-56.47-31.104c-28.23 0-28.23 31.104-56.46 31.104s-28.25-31.104-56.48-31.104c-28.23 0-28.23 31.104-56.46 31.104-28.24 0-28.24-31.104-56.47-31.104s-28.23 31.104-56.47 31.104c-28.23 0-28.23-31.104-56.46-31.104s-28.23 31.104-56.47 31.104c-28.228 0-28.228-31.104-56.46-31.104-28.233 0-28.233 31.104-56.465 31.104-28.233 0-28.247-31.104-56.48-31.104-28.232 0-28.232 31.104-56.465 31.104-28.232 0-28.232-31.104-56.479-31.104s-28.233 31.104-56.465 31.104c-28.233 0-28.233-31.104-56.465-31.104-28.233 0-28.247 31.104-56.48 31.104-28.232 0-28.232-31.104-56.465-31.104-28.232 0-28.247 31.104-56.479 31.104-28.233 0-28.233-31.104-56.48-31.104-28.247 0-28.232 31.104-56.465 31.104-28.232 0-28.232-31.104-56.465-31.104-28.233 0-28.247 31.104-56.479 31.104-28.233 0-28.247-31.104-56.48-31.104-28.232 0-28.232 31.104-56.479 31.104s-28.233-31.104-56.48-31.104c-28.247 0-28.247 31.104-56.48 31.104M1920 32.103c-28.23 0-28.23-31.103-56.47-31.103-28.23 0-28.23 31.103-56.46 31.103S1778.84 1 1750.6 1c-28.23 0-28.23 31.103-56.46 31.103S1665.89 1 1637.66 1c-28.23 0-28.23 31.103-56.47 31.103-28.23 0-28.23-31.104-56.48-31.104-28.24 0-28.23 31.104-56.46 31.104S1440.02 1 1411.78 1c-28.23 0-28.23 31.104-56.46 31.104S1327.07 1 1298.84 1c-28.23 0-28.23 31.104-56.46 31.104-28.24 0-28.24-31.104-56.47-31.104s-28.23 31.104-56.47 31.104c-28.23 0-28.23-31.104-56.46-31.104s-28.23 31.104-56.47 31.104C988.282 32.103 988.282 1 960.05 1c-28.233 0-28.233 31.104-56.465 31.104C875.352 32.103 875.338 1 847.105 1c-28.232 0-28.232 31.104-56.465 31.104C762.408 32.103 762.408 1 734.161 1s-28.233 31.104-56.465 31.104C649.463 32.103 649.463 1 621.231 1c-28.233 0-28.247 31.104-56.48 31.104C536.519 32.103 536.519 1 508.286 1c-28.232 0-28.247 31.104-56.479 31.104C423.574 32.103 423.574 1 395.327 1c-28.247 0-28.232 31.104-56.465 31.104C310.63 32.103 310.63 1 282.397 1c-28.233 0-28.247 31.104-56.479 31.104C197.685 32.103 197.671 1 169.438 1c-28.232 0-28.232 31.104-56.479 31.104S84.726 1 56.479 1C28.232 1 28.232 32.103 0 32.103"/><path d="M1920 698.467c-28.23 0-28.23-31.104-56.47-31.104-28.23 0-28.23 31.104-56.46 31.104s-28.23-31.104-56.47-31.104c-28.23 0-28.23 31.104-56.46 31.104s-28.25-31.104-56.48-31.104c-28.23 0-28.23 31.104-56.47 31.104-28.23 0-28.23-31.104-56.48-31.104-28.24 0-28.23 31.104-56.46 31.104s-28.23-31.104-56.47-31.104c-28.23 0-28.23 31.104-56.46 31.104s-28.25-31.104-56.48-31.104c-28.23 0-28.23 31.104-56.46 31.104-28.24 0-28.24-31.104-56.47-31.104s-28.23 31.104-56.47 31.104c-28.23 0-28.23-31.104-56.46-31.104s-28.23 31.104-56.47 31.104c-28.228 0-28.228-31.104-56.46-31.104-28.233 0-28.233 31.104-56.465 31.104-28.233 0-28.247-31.104-56.48-31.104-28.232 0-28.232 31.104-56.465 31.104-28.232 0-28.232-31.104-56.479-31.104s-28.233 31.104-56.465 31.104c-28.233 0-28.233-31.104-56.465-31.104-28.233 0-28.247 31.104-56.48 31.104-28.232 0-28.232-31.104-56.465-31.104-28.232 0-28.247 31.104-56.479 31.104-28.233 0-28.233-31.104-56.48-31.104-28.247 0-28.232 31.104-56.465 31.104-28.232 0-28.233-31.104-56.465-31.104-28.233 0-28.247 31.104-56.479 31.104-28.233 0-28.247-31.104-56.48-31.104-28.232 0-28.233 31.104-56.479 31.104-28.247 0-28.233-31.104-56.48-31.104-28.247 0-28.247 31.104-56.48 31.104M1920 456.153c-28.23 0-28.23-31.104-56.47-31.104-28.23 0-28.23 31.104-56.46 31.104s-28.23-31.104-56.47-31.104c-28.23 0-28.23 31.104-56.46 31.104s-28.25-31.104-56.48-31.104c-28.23 0-28.23 31.104-56.47 31.104-28.23 0-28.23-31.104-56.48-31.104-28.24 0-28.23 31.104-56.46 31.104s-28.23-31.104-56.47-31.104c-28.23 0-28.23 31.104-56.46 31.104s-28.25-31.104-56.48-31.104c-28.23 0-28.23 31.104-56.46 31.104-28.24 0-28.24-31.104-56.47-31.104s-28.23 31.104-56.47 31.104c-28.23 0-28.23-31.104-56.46-31.104s-28.23 31.104-56.47 31.104c-28.228 0-28.228-31.104-56.46-31.104-28.233 0-28.233 31.104-56.465 31.104-28.233 0-28.247-31.104-56.48-31.104-28.232 0-28.232 31.104-56.465 31.104-28.232 0-28.232-31.104-56.479-31.104s-28.233 31.104-56.465 31.104c-28.233 0-28.233-31.104-56.465-31.104-28.233 0-28.247 31.104-56.48 31.104-28.232 0-28.232-31.104-56.465-31.104-28.232 0-28.247 31.104-56.479 31.104-28.233 0-28.233-31.104-56.48-31.104-28.247 0-28.232 31.104-56.465 31.104-28.232 0-28.232-31.104-56.465-31.104-28.233 0-28.247 31.104-56.479 31.104-28.233 0-28.247-31.104-56.48-31.104-28.232 0-28.232 31.104-56.479 31.104s-28.233-31.104-56.48-31.104c-28.247 0-28.247 31.104-56.48 31.104M1920 228.983c-28.23 0-28.23-31.104-56.47-31.104-28.23 0-28.23 31.104-56.46 31.104s-28.23-31.104-56.47-31.104c-28.23 0-28.23 31.104-56.46 31.104s-28.25-31.104-56.48-31.104c-28.23 0-28.23 31.104-56.47 31.104-28.23 0-28.23-31.104-56.48-31.104-28.24 0-28.23 31.104-56.46 31.104s-28.23-31.104-56.47-31.104c-28.23 0-28.23 31.104-56.46 31.104s-28.25-31.104-56.48-31.104c-28.23 0-28.23 31.104-56.46 31.104-28.24 0-28.24-31.104-56.47-31.104s-28.23 31.104-56.47 31.104c-28.23 0-28.23-31.104-56.46-31.104s-28.23 31.104-56.47 31.104c-28.228 0-28.228-31.104-56.46-31.104-28.233 0-28.233 31.104-56.465 31.104-28.233 0-28.247-31.104-56.48-31.104-28.232 0-28.232 31.104-56.465 31.104-28.232 0-28.232-31.104-56.479-31.104s-28.233 31.104-56.465 31.104c-28.233 0-28.233-31.104-56.465-31.104-28.233 0-28.247 31.104-56.48 31.104-28.232 0-28.232-31.104-56.465-31.104-28.232 0-28.247 31.104-56.479 31.104-28.233 0-28.233-31.104-56.48-31.104-28.247 0-28.232 31.104-56.465 31.104-28.232 0-28.232-31.104-56.465-31.104-28.233 0-28.247 31.104-56.479 31.104-28.233 0-28.247-31.104-56.48-31.104-28.232 0-28.232 31.104-56.479 31.104s-28.233-31.104-56.48-31.104c-28.247 0-28.247 31.104-56.48 31.104M1920 577.31c-28.23 0-28.23-31.104-56.47-31.104-28.23 0-28.23 31.104-56.46 31.104s-28.23-31.104-56.47-31.104c-28.23 0-28.23 31.104-56.46 31.104s-28.25-31.104-56.48-31.104c-28.23 0-28.23 31.104-56.47 31.104-28.23 0-28.23-31.104-56.48-31.104-28.24 0-28.23 31.104-56.46 31.104s-28.23-31.104-56.47-31.104c-28.23 0-28.23 31.104-56.46 31.104s-28.25-31.104-56.48-31.104c-28.23 0-28.23 31.104-56.46 31.104-28.24 0-28.24-31.104-56.47-31.104s-28.23 31.104-56.47 31.104c-28.23-.001-28.23-31.104-56.46-31.104s-28.23 31.103-56.47 31.103c-28.228 0-28.228-31.103-56.46-31.104-28.233 0-28.233 31.104-56.465 31.104-28.233 0-28.247-31.104-56.48-31.104-28.232 0-28.232 31.104-56.465 31.104-28.232 0-28.232-31.104-56.479-31.104s-28.233 31.104-56.465 31.104c-28.233 0-28.233-31.104-56.465-31.104-28.233 0-28.247 31.104-56.48 31.104-28.232 0-28.232-31.104-56.465-31.104-28.232 0-28.247 31.104-56.479 31.104-28.233 0-28.233-31.104-56.48-31.104-28.247 0-28.232 31.104-56.465 31.104-28.232 0-28.232-31.104-56.465-31.104-28.233 0-28.247 31.104-56.479 31.104-28.233 0-28.247-31.104-56.48-31.104-28.232 0-28.232 31.104-56.479 31.104s-28.233-31.104-56.48-31.104c-28.247 0-28.247 31.104-56.48 31.104M1920 334.996c-28.23 0-28.23-31.104-56.47-31.104-28.23 0-28.23 31.104-56.46 31.104s-28.23-31.104-56.47-31.104c-28.23 0-28.23 31.104-56.46 31.104s-28.25-31.104-56.48-31.104c-28.23 0-28.23 31.104-56.47 31.104-28.23 0-28.23-31.104-56.48-31.104-28.24 0-28.23 31.104-56.46 31.104s-28.23-31.104-56.47-31.104c-28.23 0-28.23 31.104-56.46 31.104s-28.25-31.104-56.48-31.104c-28.23 0-28.23 31.104-56.46 31.104-28.24 0-28.24-31.104-56.47-31.104s-28.23 31.104-56.47 31.104c-28.23 0-28.23-31.104-56.46-31.104s-28.23 31.104-56.47 31.104c-28.228 0-28.228-31.104-56.46-31.104-28.233 0-28.233 31.104-56.465 31.104-28.233 0-28.247-31.104-56.48-31.104-28.232 0-28.232 31.104-56.465 31.104-28.232 0-28.232-31.104-56.479-31.104s-28.233 31.104-56.465 31.104c-28.233 0-28.233-31.104-56.465-31.104-28.233 0-28.247 31.104-56.48 31.104-28.232 0-28.232-31.104-56.465-31.104-28.232 0-28.247 31.104-56.479 31.104-28.233 0-28.233-31.104-56.48-31.104-28.247 0-28.232 31.104-56.465 31.104-28.232 0-28.232-31.104-56.465-31.104-28.233 0-28.247 31.104-56.479 31.104-28.233 0-28.247-31.104-56.48-31.104-28.232 0-28.232 31.104-56.479 31.104s-28.233-31.104-56.48-31.104c-28.247 0-28.247 31.104-56.48 31.104M1920 107.827c-28.23 0-28.23-31.104-56.47-31.104-28.23 0-28.23 31.104-56.46 31.104s-28.23-31.104-56.47-31.104c-28.23 0-28.23 31.104-56.46 31.104s-28.25-31.104-56.48-31.104c-28.23 0-28.23 31.104-56.47 31.104-28.23 0-28.23-31.104-56.48-31.104-28.24 0-28.23 31.104-56.46 31.104s-28.23-31.104-56.47-31.104c-28.23 0-28.23 31.104-56.46 31.104s-28.25-31.104-56.48-31.104c-28.23 0-28.23 31.104-56.46 31.104-28.24 0-28.24-31.104-56.47-31.104s-28.23 31.104-56.47 31.104c-28.23 0-28.23-31.104-56.46-31.104s-28.23 31.104-56.47 31.104c-28.228 0-28.228-31.104-56.46-31.104-28.233 0-28.233 31.104-56.465 31.104-28.233 0-28.247-31.104-56.48-31.104-28.232 0-28.232 31.104-56.465 31.104-28.232 0-28.232-31.104-56.479-31.104s-28.233 31.104-56.465 31.104c-28.233 0-28.233-31.104-56.465-31.104-28.233 0-28.247 31.104-56.48 31.104-28.232 0-28.232-31.104-56.465-31.104-28.232 0-28.247 31.104-56.479 31.104-28.233 0-28.233-31.104-56.48-31.104-28.247 0-28.232 31.104-56.465 31.104-28.232 0-28.232-31.104-56.465-31.104-28.233 0-28.247 31.104-56.479 31.104-28.233 0-28.247-31.104-56.48-31.104-28.232 0-28.232 31.104-56.479 31.104s-28.233-31.104-56.48-31.104c-28.247 0-28.247 31.104-56.48 31.104M1920 637.889c-28.23 0-28.23-31.104-56.47-31.104-28.23 0-28.23 31.104-56.46 31.104s-28.23-31.104-56.47-31.104c-28.23 0-28.23 31.104-56.46 31.104s-28.25-31.104-56.48-31.104c-28.23 0-28.23 31.104-56.47 31.104-28.23 0-28.23-31.104-56.48-31.104-28.24 0-28.23 31.104-56.46 31.104s-28.23-31.104-56.47-31.104c-28.23 0-28.23 31.104-56.46 31.104s-28.25-31.104-56.48-31.104c-28.23 0-28.23 31.104-56.46 31.104-28.24 0-28.24-31.104-56.47-31.104s-28.23 31.104-56.47 31.104c-28.23 0-28.23-31.104-56.46-31.104s-28.23 31.104-56.47 31.104c-28.228 0-28.228-31.104-56.46-31.104-28.233 0-28.233 31.104-56.465 31.104-28.233 0-28.247-31.104-56.48-31.104-28.232 0-28.232 31.104-56.465 31.104-28.232 0-28.232-31.104-56.479-31.104s-28.233 31.104-56.465 31.104c-28.233 0-28.233-31.104-56.465-31.104-28.233 0-28.247 31.104-56.48 31.104-28.232 0-28.232-31.104-56.465-31.104-28.232 0-28.247 31.104-56.479 31.104-28.233 0-28.233-31.104-56.48-31.104-28.247 0-28.232 31.104-56.465 31.104-28.232 0-28.232-31.104-56.465-31.104-28.233 0-28.247 31.104-56.479 31.104-28.233 0-28.247-31.104-56.48-31.104-28.232 0-28.232 31.104-56.479 31.104s-28.233-31.104-56.48-31.104c-28.247 0-28.247 31.104-56.48 31.104M1920 395.574c-28.23 0-28.23-31.104-56.47-31.104-28.23 0-28.23 31.104-56.46 31.104s-28.23-31.104-56.47-31.104c-28.23 0-28.23 31.104-56.46 31.104s-28.25-31.104-56.48-31.104c-28.23 0-28.23 31.104-56.47 31.104-28.23 0-28.23-31.104-56.48-31.104-28.24 0-28.23 31.104-56.46 31.104s-28.23-31.104-56.47-31.104c-28.23 0-28.23 31.104-56.46 31.104s-28.25-31.104-56.48-31.104c-28.23 0-28.23 31.104-56.46 31.104-28.24 0-28.24-31.104-56.47-31.104s-28.23 31.104-56.47 31.104c-28.23 0-28.23-31.104-56.46-31.104s-28.23 31.104-56.47 31.104c-28.228 0-28.228-31.104-56.46-31.104-28.233 0-28.233 31.104-56.465 31.104-28.233 0-28.247-31.104-56.48-31.104-28.232 0-28.232 31.104-56.465 31.104-28.232 0-28.232-31.104-56.479-31.104s-28.233 31.104-56.465 31.104c-28.233 0-28.233-31.104-56.465-31.104-28.233 0-28.247 31.104-56.48 31.104-28.232 0-28.232-31.104-56.465-31.104-28.232 0-28.247 31.104-56.479 31.104-28.233 0-28.233-31.104-56.48-31.104-28.247 0-28.232 31.104-56.465 31.104-28.232 0-28.232-31.104-56.465-31.104-28.233 0-28.247 31.104-56.479 31.104-28.233 0-28.247-31.104-56.48-31.104-28.232 0-28.232 31.104-56.479 31.104s-28.233-31.104-56.48-31.104c-28.247 0-28.247 31.104-56.48 31.104M1920 168.405c-28.23 0-28.23-31.104-56.47-31.104-28.23 0-28.23 31.104-56.46 31.104s-28.23-31.104-56.47-31.104c-28.23 0-28.23 31.104-56.46 31.104s-28.25-31.104-56.48-31.104c-28.23 0-28.23 31.104-56.47 31.104-28.23 0-28.23-31.104-56.48-31.104-28.24 0-28.23 31.104-56.46 31.104s-28.23-31.104-56.47-31.104c-28.23 0-28.23 31.104-56.46 31.104s-28.25-31.104-56.48-31.104c-28.23 0-28.23 31.104-56.46 31.104-28.24 0-28.24-31.104-56.47-31.104s-28.23 31.104-56.47 31.104c-28.23 0-28.23-31.104-56.46-31.104s-28.23 31.104-56.47 31.104c-28.228 0-28.228-31.104-56.46-31.104-28.233 0-28.233 31.104-56.465 31.104-28.233 0-28.247-31.104-56.48-31.104-28.232 0-28.232 31.104-56.465 31.104-28.232 0-28.232-31.104-56.479-31.104s-28.233 31.104-56.465 31.104c-28.233 0-28.233-31.104-56.465-31.104-28.233 0-28.247 31.104-56.48 31.104-28.232 0-28.232-31.104-56.465-31.104-28.232 0-28.247 31.104-56.479 31.104-28.233 0-28.233-31.104-56.48-31.104-28.247 0-28.232 31.104-56.465 31.104-28.232 0-28.232-31.104-56.465-31.104-28.233 0-28.247 31.104-56.479 31.104-28.233 0-28.247-31.104-56.48-31.104-28.232 0-28.232 31.104-56.479 31.104s-28.233-31.104-56.48-31.104c-28.247 0-28.247 31.104-56.48 31.104M1920 516.731c-28.23 0-28.23-31.104-56.47-31.104-28.23 0-28.23 31.104-56.46 31.104s-28.23-31.104-56.47-31.104c-28.23 0-28.23 31.104-56.46 31.104s-28.25-31.104-56.48-31.104c-28.23 0-28.23 31.104-56.47 31.104-28.23 0-28.23-31.104-56.48-31.104-28.24 0-28.23 31.104-56.46 31.104s-28.23-31.104-56.47-31.104c-28.23 0-28.23 31.104-56.46 31.104s-28.25-31.104-56.48-31.104c-28.23 0-28.23 31.104-56.46 31.104-28.24 0-28.24-31.104-56.47-31.104s-28.23 31.104-56.47 31.104c-28.23 0-28.23-31.104-56.46-31.104s-28.23 31.104-56.47 31.104c-28.228 0-28.228-31.104-56.46-31.104-28.233 0-28.233 31.104-56.465 31.104-28.233 0-28.247-31.104-56.48-31.104-28.232 0-28.232 31.104-56.465 31.104-28.232 0-28.232-31.104-56.479-31.104s-28.233 31.104-56.465 31.104c-28.233 0-28.233-31.104-56.465-31.104-28.233 0-28.247 31.104-56.48 31.104-28.232 0-28.232-31.104-56.465-31.104-28.232 0-28.247 31.104-56.479 31.104-28.233 0-28.233-31.104-56.48-31.104-28.247 0-28.232 31.104-56.465 31.104-28.232 0-28.232-31.104-56.465-31.104-28.233 0-28.247 31.104-56.479 31.104-28.233 0-28.247-31.104-56.48-31.104-28.232 0-28.232 31.104-56.479 31.104s-28.233-31.104-56.48-31.104c-28.247 0-28.247 31.104-56.48 31.104M1920 274.418c-28.23 0-28.23-31.104-56.47-31.104-28.23 0-28.23 31.104-56.46 31.104s-28.23-31.104-56.47-31.104c-28.23 0-28.23 31.104-56.46 31.104s-28.25-31.104-56.48-31.104c-28.23 0-28.23 31.104-56.47 31.104-28.23 0-28.23-31.104-56.48-31.104-28.24 0-28.23 31.104-56.46 31.104s-28.23-31.104-56.47-31.104c-28.23 0-28.23 31.104-56.46 31.104s-28.25-31.104-56.48-31.104c-28.23 0-28.23 31.104-56.46 31.104-28.24 0-28.24-31.104-56.47-31.104s-28.23 31.104-56.47 31.104c-28.23 0-28.23-31.104-56.46-31.104s-28.23 31.104-56.47 31.104c-28.228 0-28.228-31.104-56.46-31.104-28.233 0-28.233 31.104-56.465 31.104-28.233 0-28.247-31.104-56.48-31.104-28.232 0-28.232 31.104-56.465 31.104-28.232 0-28.232-31.104-56.479-31.104s-28.233 31.104-56.465 31.104c-28.233 0-28.233-31.104-56.465-31.104-28.233 0-28.247 31.104-56.48 31.104-28.232 0-28.232-31.104-56.465-31.104-28.232 0-28.247 31.104-56.479 31.104-28.233 0-28.233-31.104-56.48-31.104-28.247 0-28.232 31.104-56.465 31.104-28.232 0-28.232-31.104-56.465-31.104-28.233 0-28.247 31.104-56.479 31.104-28.233 0-28.247-31.104-56.48-31.104-28.232 0-28.232 31.104-56.479 31.104s-28.233-31.104-56.48-31.104c-28.247 0-28.247 31.104-56.48 31.104M1920 47.248c-28.23 0-28.23-31.104-56.47-31.104-28.23 0-28.23 31.104-56.46 31.104s-28.23-31.104-56.47-31.104c-28.23 0-28.23 31.104-56.46 31.104s-28.25-31.104-56.48-31.104c-28.23 0-28.23 31.104-56.47 31.104-28.23 0-28.23-31.104-56.48-31.104-28.24 0-28.23 31.104-56.46 31.104s-28.23-31.104-56.47-31.104c-28.23 0-28.23 31.104-56.46 31.104s-28.25-31.104-56.48-31.104c-28.23 0-28.23 31.104-56.46 31.104-28.24 0-28.24-31.104-56.47-31.104s-28.23 31.104-56.47 31.104c-28.23 0-28.23-31.104-56.46-31.104s-28.23 31.104-56.47 31.104c-28.228 0-28.228-31.104-56.46-31.104-28.233 0-28.233 31.104-56.465 31.104-28.233 0-28.247-31.104-56.48-31.104-28.232 0-28.232 31.104-56.465 31.104-28.232 0-28.232-31.104-56.479-31.104s-28.233 31.104-56.465 31.104c-28.233 0-28.233-31.104-56.465-31.104-28.233 0-28.247 31.104-56.48 31.104-28.232 0-28.232-31.104-56.465-31.104-28.232 0-28.247 31.104-56.479 31.104-28.233 0-28.233-31.104-56.48-31.104-28.247 0-28.232 31.104-56.465 31.104-28.232 0-28.232-31.104-56.465-31.104-28.233 0-28.247 31.104-56.479 31.104-28.233 0-28.247-31.104-56.48-31.104-28.232 0-28.232 31.104-56.479 31.104s-28.233-31.104-56.48-31.104c-28.247 0-28.247 31.104-56.48 31.104"/><path d="M1920 668.178c-28.23 0-28.23-31.104-56.47-31.104-28.23 0-28.23 31.104-56.46 31.104s-28.23-31.104-56.47-31.104c-28.23 0-28.23 31.104-56.46 31.104s-28.25-31.104-56.48-31.104c-28.23 0-28.23 31.104-56.47 31.104-28.23 0-28.23-31.104-56.48-31.104-28.24 0-28.23 31.104-56.46 31.104s-28.23-31.104-56.47-31.104c-28.23 0-28.23 31.104-56.46 31.104s-28.25-31.104-56.48-31.104c-28.23 0-28.23 31.104-56.46 31.104-28.24 0-28.24-31.104-56.47-31.104s-28.23 31.104-56.47 31.104c-28.23 0-28.23-31.104-56.46-31.104s-28.23 31.104-56.47 31.104c-28.228 0-28.228-31.104-56.46-31.104-28.233 0-28.233 31.104-56.465 31.104-28.233 0-28.247-31.104-56.48-31.104-28.232 0-28.232 31.104-56.465 31.104-28.232 0-28.232-31.104-56.479-31.104s-28.233 31.104-56.465 31.104c-28.233 0-28.233-31.104-56.465-31.104-28.233 0-28.247 31.104-56.48 31.104-28.232 0-28.232-31.104-56.465-31.104-28.232 0-28.247 31.104-56.479 31.104-28.233 0-28.233-31.104-56.48-31.104-28.247 0-28.232 31.104-56.465 31.104-28.232 0-28.232-31.104-56.465-31.104-28.233 0-28.247 31.104-56.479 31.104-28.233 0-28.247-31.104-56.48-31.104-28.232 0-28.232 31.104-56.479 31.104s-28.233-31.104-56.48-31.104c-28.247 0-28.247 31.104-56.48 31.104M1920 425.863c-28.23 0-28.23-31.104-56.47-31.104-28.23 0-28.23 31.104-56.46 31.104s-28.23-31.104-56.47-31.104c-28.23 0-28.23 31.104-56.46 31.104s-28.25-31.104-56.48-31.104c-28.23 0-28.23 31.104-56.47 31.104-28.23 0-28.23-31.104-56.48-31.104-28.24 0-28.23 31.104-56.46 31.104s-28.23-31.104-56.47-31.104c-28.23 0-28.23 31.104-56.46 31.104s-28.25-31.104-56.48-31.104c-28.23 0-28.23 31.104-56.46 31.104-28.24 0-28.24-31.104-56.47-31.104s-28.23 31.104-56.47 31.104c-28.23 0-28.23-31.104-56.46-31.104s-28.23 31.104-56.47 31.104c-28.228 0-28.228-31.104-56.46-31.104-28.233 0-28.233 31.104-56.465 31.104-28.233 0-28.247-31.104-56.48-31.104-28.232 0-28.232 31.104-56.465 31.104-28.232 0-28.232-31.104-56.479-31.104s-28.233 31.104-56.465 31.104c-28.233 0-28.233-31.104-56.465-31.104-28.233 0-28.247 31.104-56.48 31.104-28.232 0-28.232-31.104-56.465-31.104-28.232 0-28.247 31.104-56.479 31.104-28.233 0-28.233-31.104-56.48-31.104-28.247 0-28.232 31.104-56.465 31.104-28.232 0-28.232-31.104-56.465-31.104-28.233 0-28.247 31.104-56.479 31.104-28.233 0-28.247-31.104-56.48-31.104-28.232 0-28.232 31.104-56.479 31.104s-28.233-31.104-56.48-31.104c-28.247 0-28.247 31.104-56.48 31.104M1920 198.694c-28.23 0-28.23-31.104-56.47-31.104-28.23 0-28.23 31.104-56.46 31.104s-28.23-31.104-56.47-31.104c-28.23 0-28.23 31.104-56.46 31.104s-28.25-31.104-56.48-31.104c-28.23 0-28.23 31.104-56.47 31.104-28.23 0-28.23-31.104-56.48-31.104-28.24 0-28.23 31.104-56.46 31.104s-28.23-31.104-56.47-31.104c-28.23 0-28.23 31.104-56.46 31.104s-28.25-31.104-56.48-31.104c-28.23 0-28.23 31.104-56.46 31.104-28.24 0-28.24-31.104-56.47-31.104s-28.23 31.104-56.47 31.104c-28.23 0-28.23-31.104-56.46-31.104s-28.23 31.104-56.47 31.104c-28.228 0-28.228-31.104-56.46-31.104-28.233 0-28.233 31.104-56.465 31.104-28.233 0-28.247-31.104-56.48-31.104-28.232 0-28.232 31.104-56.465 31.104-28.232 0-28.232-31.104-56.479-31.104s-28.233 31.104-56.465 31.104c-28.233 0-28.233-31.104-56.465-31.104-28.233 0-28.247 31.104-56.48 31.104-28.232 0-28.232-31.104-56.465-31.104-28.232 0-28.247 31.104-56.479 31.104-28.233 0-28.233-31.104-56.48-31.104-28.247 0-28.232 31.104-56.465 31.104-28.232 0-28.232-31.104-56.465-31.104-28.233 0-28.247 31.104-56.479 31.104-28.233 0-28.247-31.104-56.48-31.104-28.232 0-28.232 31.104-56.479 31.104s-28.233-31.104-56.48-31.104c-28.247 0-28.247 31.104-56.48 31.104M1920 547.021c-28.23 0-28.23-31.104-56.47-31.104-28.23 0-28.23 31.104-56.46 31.103-28.23 0-28.23-31.103-56.47-31.103-28.23 0-28.23 31.103-56.46 31.103s-28.25-31.104-56.48-31.104c-28.23 0-28.23 31.104-56.47 31.104-28.23 0-28.23-31.104-56.48-31.104-28.24 0-28.23 31.104-56.46 31.104s-28.23-31.104-56.47-31.104c-28.23 0-28.23 31.104-56.46 31.104s-28.25-31.104-56.48-31.104c-28.23 0-28.23 31.104-56.46 31.104-28.24 0-28.24-31.104-56.47-31.104s-28.23 31.104-56.47 31.104c-28.23 0-28.23-31.104-56.46-31.104s-28.23 31.104-56.47 31.104c-28.228 0-28.228-31.104-56.46-31.104-28.233 0-28.233 31.104-56.465 31.104-28.233 0-28.247-31.104-56.48-31.104-28.232 0-28.232 31.104-56.465 31.104-28.232 0-28.232-31.104-56.479-31.104s-28.233 31.104-56.465 31.104c-28.233 0-28.233-31.104-56.465-31.104-28.233 0-28.247 31.104-56.48 31.104-28.232 0-28.232-31.104-56.465-31.104-28.232 0-28.247 31.104-56.479 31.104-28.233 0-28.233-31.104-56.48-31.104-28.247 0-28.232 31.104-56.465 31.104-28.232 0-28.232-31.104-56.465-31.104-28.233 0-28.247 31.104-56.479 31.104-28.233 0-28.247-31.104-56.48-31.104-28.232 0-28.232 31.104-56.479 31.104s-28.233-31.104-56.48-31.104c-28.247 0-28.247 31.104-56.48 31.104M1920 304.707c-28.23 0-28.23-31.104-56.47-31.104-28.23 0-28.23 31.104-56.46 31.104s-28.23-31.104-56.47-31.104c-28.23 0-28.23 31.104-56.46 31.104s-28.25-31.104-56.48-31.104c-28.23 0-28.23 31.104-56.47 31.104-28.23 0-28.23-31.104-56.48-31.104-28.24 0-28.23 31.104-56.46 31.104s-28.23-31.104-56.47-31.104c-28.23 0-28.23 31.104-56.46 31.104s-28.25-31.104-56.48-31.104c-28.23 0-28.23 31.104-56.46 31.104-28.24 0-28.24-31.104-56.47-31.104s-28.23 31.104-56.47 31.104c-28.23 0-28.23-31.104-56.46-31.104s-28.23 31.104-56.47 31.104c-28.228 0-28.228-31.104-56.46-31.104-28.233 0-28.233 31.104-56.465 31.104-28.233 0-28.247-31.104-56.48-31.104-28.232 0-28.232 31.104-56.465 31.104-28.232 0-28.232-31.104-56.479-31.104s-28.233 31.104-56.465 31.104c-28.233 0-28.233-31.104-56.465-31.104-28.233 0-28.247 31.104-56.48 31.104-28.232 0-28.232-31.104-56.465-31.104-28.232 0-28.247 31.104-56.479 31.104-28.233 0-28.233-31.104-56.48-31.104-28.247 0-28.232 31.104-56.465 31.104-28.232 0-28.232-31.104-56.465-31.104-28.233 0-28.247 31.104-56.479 31.104-28.233 0-28.247-31.104-56.48-31.104-28.232 0-28.232 31.104-56.479 31.104s-28.233-31.104-56.48-31.104c-28.247 0-28.247 31.104-56.48 31.104M1920 77.537c-28.23 0-28.23-31.104-56.47-31.104-28.23 0-28.23 31.104-56.46 31.104s-28.23-31.104-56.47-31.104c-28.23 0-28.23 31.104-56.46 31.104s-28.25-31.104-56.48-31.104c-28.23 0-28.23 31.104-56.47 31.104-28.23 0-28.23-31.104-56.48-31.104-28.24 0-28.23 31.104-56.46 31.104s-28.23-31.104-56.47-31.104c-28.23 0-28.23 31.104-56.46 31.104s-28.25-31.104-56.48-31.104c-28.23 0-28.23 31.104-56.46 31.104-28.24 0-28.24-31.104-56.47-31.104s-28.23 31.104-56.47 31.104c-28.23 0-28.23-31.104-56.46-31.104s-28.23 31.104-56.47 31.104c-28.228 0-28.228-31.104-56.46-31.104-28.233 0-28.233 31.104-56.465 31.104-28.233 0-28.247-31.104-56.48-31.104-28.232 0-28.232 31.104-56.465 31.104-28.232 0-28.232-31.104-56.479-31.104s-28.233 31.104-56.465 31.104c-28.233 0-28.233-31.104-56.465-31.104-28.233 0-28.247 31.104-56.48 31.104-28.232 0-28.232-31.104-56.465-31.104-28.232 0-28.247 31.104-56.479 31.104-28.233 0-28.233-31.104-56.48-31.104-28.247 0-28.232 31.104-56.465 31.104-28.232 0-28.232-31.104-56.465-31.104-28.233 0-28.247 31.104-56.479 31.104-28.233 0-28.247-31.104-56.48-31.104-28.232 0-28.232 31.104-56.479 31.104s-28.233-31.104-56.48-31.104c-28.247 0-28.247 31.104-56.48 31.104M1920 607.599c-28.23 0-28.23-31.104-56.47-31.104-28.23 0-28.23 31.104-56.46 31.104s-28.23-31.104-56.47-31.104c-28.23 0-28.23 31.104-56.46 31.104s-28.25-31.104-56.48-31.104c-28.23 0-28.23 31.104-56.47 31.104-28.23 0-28.23-31.104-56.48-31.104-28.24 0-28.23 31.104-56.46 31.104s-28.23-31.104-56.47-31.104c-28.23 0-28.23 31.104-56.46 31.104s-28.25-31.104-56.48-31.104c-28.23 0-28.23 31.104-56.46 31.104-28.24 0-28.24-31.104-56.47-31.104s-28.23 31.104-56.47 31.104c-28.23 0-28.23-31.104-56.46-31.104s-28.23 31.104-56.47 31.104c-28.228 0-28.228-31.104-56.46-31.104-28.233 0-28.233 31.104-56.465 31.104-28.233 0-28.247-31.104-56.48-31.104-28.232 0-28.232 31.104-56.465 31.104-28.232 0-28.232-31.104-56.479-31.104s-28.233 31.104-56.465 31.104c-28.233 0-28.233-31.104-56.465-31.104-28.233 0-28.247 31.104-56.48 31.104-28.232 0-28.232-31.104-56.465-31.104-28.232 0-28.247 31.104-56.479 31.104-28.233 0-28.233-31.104-56.48-31.104-28.247 0-28.232 31.103-56.465 31.103-28.232 0-28.232-31.103-56.465-31.103-28.233-.001-28.247 31.103-56.479 31.103-28.233 0-28.247-31.104-56.48-31.104-28.232 0-28.232 31.104-56.479 31.104s-28.233-31.104-56.48-31.104c-28.247 0-28.247 31.104-56.48 31.104M1920 365.285c-28.23 0-28.23-31.104-56.47-31.104-28.23 0-28.23 31.104-56.46 31.104s-28.23-31.104-56.47-31.104c-28.23 0-28.23 31.104-56.46 31.104s-28.25-31.104-56.48-31.104c-28.23 0-28.23 31.104-56.47 31.104-28.23 0-28.23-31.104-56.48-31.104-28.24 0-28.23 31.104-56.46 31.104s-28.23-31.104-56.47-31.104c-28.23 0-28.23 31.104-56.46 31.104s-28.25-31.104-56.48-31.104c-28.23 0-28.23 31.104-56.46 31.104-28.24 0-28.24-31.104-56.47-31.104s-28.23 31.104-56.47 31.104c-28.23 0-28.23-31.104-56.46-31.104s-28.23 31.104-56.47 31.104c-28.228 0-28.228-31.104-56.46-31.104-28.233 0-28.233 31.104-56.465 31.104-28.233 0-28.247-31.104-56.48-31.104-28.232 0-28.232 31.104-56.465 31.104-28.232 0-28.232-31.104-56.479-31.104s-28.233 31.104-56.465 31.104c-28.233 0-28.233-31.104-56.465-31.104-28.233 0-28.247 31.104-56.48 31.104-28.232 0-28.232-31.104-56.465-31.104-28.232 0-28.247 31.104-56.479 31.104-28.233 0-28.233-31.104-56.48-31.104-28.247 0-28.232 31.104-56.465 31.104-28.232 0-28.232-31.104-56.465-31.104-28.233 0-28.247 31.104-56.479 31.104-28.233 0-28.247-31.104-56.48-31.104-28.232 0-28.232 31.104-56.479 31.104s-28.233-31.104-56.48-31.104c-28.247 0-28.247 31.104-56.48 31.104M1920 138.116c-28.23 0-28.23-31.104-56.47-31.104-28.23 0-28.23 31.104-56.46 31.104s-28.23-31.104-56.47-31.104c-28.23 0-28.23 31.104-56.46 31.104s-28.25-31.104-56.48-31.104c-28.23 0-28.23 31.104-56.47 31.104-28.23 0-28.23-31.104-56.48-31.104-28.24 0-28.23 31.104-56.46 31.104s-28.23-31.104-56.47-31.104c-28.23 0-28.23 31.104-56.46 31.104s-28.25-31.104-56.48-31.104c-28.23 0-28.23 31.104-56.46 31.104-28.24 0-28.24-31.104-56.47-31.104s-28.23 31.104-56.47 31.104c-28.23 0-28.23-31.104-56.46-31.104s-28.23 31.104-56.47 31.104c-28.228 0-28.228-31.104-56.46-31.104-28.233 0-28.233 31.104-56.465 31.104-28.233 0-28.247-31.104-56.48-31.104-28.232 0-28.232 31.104-56.465 31.104-28.232 0-28.232-31.104-56.479-31.104s-28.233 31.104-56.465 31.104c-28.233 0-28.233-31.104-56.465-31.104-28.233 0-28.247 31.104-56.48 31.104-28.232 0-28.232-31.104-56.465-31.104-28.232 0-28.247 31.104-56.479 31.104-28.233 0-28.233-31.104-56.48-31.104-28.247 0-28.232 31.104-56.465 31.104-28.232 0-28.232-31.104-56.465-31.104-28.233 0-28.247 31.104-56.479 31.104-28.233 0-28.247-31.104-56.48-31.104-28.232 0-28.232 31.104-56.479 31.104s-28.233-31.104-56.48-31.104c-28.247 0-28.247 31.104-56.48 31.104M1920 486.442c-28.23 0-28.23-31.104-56.47-31.104-28.23 0-28.23 31.104-56.46 31.104s-28.23-31.104-56.47-31.104c-28.23 0-28.23 31.104-56.46 31.104s-28.25-31.104-56.48-31.104c-28.23 0-28.23 31.104-56.47 31.104-28.23 0-28.23-31.104-56.48-31.104-28.24 0-28.23 31.104-56.46 31.104s-28.23-31.104-56.47-31.104c-28.23 0-28.23 31.104-56.46 31.104s-28.25-31.104-56.48-31.104c-28.23 0-28.23 31.104-56.46 31.104-28.24 0-28.24-31.104-56.47-31.104s-28.23 31.104-56.47 31.104c-28.23 0-28.23-31.104-56.46-31.104s-28.23 31.104-56.47 31.104c-28.228 0-28.228-31.104-56.46-31.104-28.233 0-28.233 31.104-56.465 31.104-28.233 0-28.247-31.104-56.48-31.104-28.232 0-28.232 31.104-56.465 31.104-28.232 0-28.232-31.104-56.479-31.104s-28.233 31.104-56.465 31.104c-28.233 0-28.233-31.104-56.465-31.104-28.233 0-28.247 31.104-56.48 31.104-28.232 0-28.232-31.104-56.465-31.104-28.232 0-28.247 31.104-56.479 31.104-28.233 0-28.233-31.104-56.48-31.104-28.247 0-28.232 31.104-56.465 31.104-28.232 0-28.232-31.104-56.465-31.104-28.233 0-28.247 31.104-56.479 31.104-28.233 0-28.247-31.104-56.48-31.104-28.232 0-28.232 31.104-56.479 31.104s-28.233-31.104-56.48-31.104c-28.247 0-28.247 31.104-56.48 31.104M1920 244.128c-28.23 0-28.23-31.104-56.47-31.104-28.23 0-28.23 31.104-56.46 31.104s-28.23-31.104-56.47-31.104c-28.23 0-28.23 31.104-56.46 31.104s-28.25-31.104-56.48-31.104c-28.23 0-28.23 31.104-56.47 31.104-28.23 0-28.23-31.104-56.48-31.104-28.24 0-28.23 31.104-56.46 31.104s-28.23-31.104-56.47-31.104c-28.23 0-28.23 31.104-56.46 31.104s-28.25-31.104-56.48-31.104c-28.23 0-28.23 31.104-56.46 31.104-28.24 0-28.24-31.104-56.47-31.104s-28.23 31.104-56.47 31.104c-28.23 0-28.23-31.104-56.46-31.104s-28.23 31.104-56.47 31.104c-28.228 0-28.228-31.104-56.46-31.104-28.233 0-28.233 31.104-56.465 31.104-28.233 0-28.247-31.104-56.48-31.104-28.232 0-28.232 31.104-56.465 31.104-28.232 0-28.232-31.104-56.479-31.104s-28.233 31.104-56.465 31.104c-28.233 0-28.233-31.104-56.465-31.104-28.233 0-28.247 31.104-56.48 31.104-28.232 0-28.232-31.104-56.465-31.104-28.232 0-28.247 31.104-56.479 31.104-28.233 0-28.233-31.104-56.48-31.104-28.247 0-28.232 31.104-56.465 31.104-28.232 0-28.232-31.104-56.465-31.104-28.233 0-28.247 31.104-56.479 31.104-28.233 0-28.247-31.104-56.48-31.104-28.232 0-28.232 31.104-56.479 31.104s-28.233-31.104-56.48-31.104c-28.247 0-28.247 31.104-56.48 31.104"/></g></svg>